# xmcd CD database file
#
# Track frame offsets:
#	150
#	31282
#	66757
#	95332
#	134782
#	161707
#	188407
#	212857
#	242032
#	273682
#
# Disc length: 4237 seconds
#
# Revision: 1
# Processed by: cddbd v1.5.2PL0 Copyright (c) Steve Scherf et al.
# Submitted via: CDex 1.70beta2
#
DISCID=93108b0a
DTITLE=Blasco, Sobrino and Celada - Fresh Jazz en Madrid
DYEAR=1999
DGENRE=Jazz
TTITLE0=Carmiña
TTITLE1=Body and Soul
TTITLE2=Humpty Dumpty
TTITLE3=Up
TTITLE4=On Green Dolphin Street
TTITLE5=Dos Pájaros
TTITLE6=Down
TTITLE7=So What
TTITLE8=Quartet Nº 2
TTITLE9=All Blues
EXTD=YEAR: 1999
EXTT0=
EXTT1=
EXTT2=
EXTT3=
EXTT4=
EXTT5=
EXTT6=
EXTT7=
EXTT8=
EXTT9=
PLAYORDER=
